<?xml version="1.0" encoding="windows-1252"?>
<!-- Generator: Adobe Illustrator 19.0.0, SVG Export Plug-In . SVG Version: 6.00 Build 0)  -->
<svg version="1.1" id="Layer_1" xmlns="http://www.w3.org/2000/svg" xmlns:xlink="http://www.w3.org/1999/xlink" x="0px" y="0px" viewBox="0 0 511.999 511.999" style="enable-background:new 0 0 511.999 511.999;" xml:space="preserve">
<g>
	<path style="fill:#718689;" d="M307.741,302.421l11.424,8.585l-0.745,1.62c-1.448,3.147-2.822,6.261-4.085,9.257l-3.208,7.605   L307.741,302.421z"/>
	<path style="fill:#718689;" d="M310.583,307.324l5.828,4.379c-1.515,3.295-2.886,6.414-4.114,9.322L310.583,307.324z"/>
	<path style="fill:#718689;" d="M138.23,300.167c0.01-12.918,2.499-27.416,7.398-43.089l1.779-5.692l2.363,5.476   c4.328,10.035,10.953,20.183,19.694,30.16l1.441,1.645l-1.63,1.459c-5.667,5.077-14.949,7.987-23.926,10.802   c-1.392,0.431-2.799,0.881-4.228,1.344l-2.894,0.938L138.23,300.167z"/>
	<path style="fill:#718689;" d="M167.799,288.48c-5.297,4.744-14.331,7.586-23.112,10.339c-1.393,0.431-2.809,0.885-4.246,1.349   c0.011-15.062,3.505-30.299,7.298-42.431C152.738,269.327,160.158,279.755,167.799,288.48z"/>
</g>
<g>
	<path style="fill:#5D6364;" d="M82.494,244.757l1.548-1.479c2.209-2.111,4.308-4.087,6.24-5.874   c1.852-1.72,3.696-3.396,5.506-5.028l1.648-1.486l24.637,27.531l-1.499,1.48c-3.782,3.729-7.731,7.427-11.738,10.992l-1.647,1.466   L82.494,244.757z"/>
	<path style="fill:#5D6364;" d="M97.27,234.018l21.752,24.306c-3.948,3.892-7.84,7.52-11.655,10.914l-21.796-24.361   c2.201-2.101,4.291-4.071,6.215-5.85C93.632,237.313,95.468,235.644,97.27,234.018z"/>
	<path style="fill:#5D6364;" d="M22.41,315.019c7.441-11.447,16.667-23.55,27.419-35.97l1.644-1.9l19.498,21.8l-2.349,1.362   c-7.474,4.335-14.909,8.033-22.098,10.992c-7.371,3.042-14.692,5.423-21.757,7.074l-5.355,1.253L22.41,315.019z"/>
	<path style="fill:#5D6364;" d="M51.5,280.497l16.011,17.902c-8.161,4.733-15.515,8.26-21.829,10.859   c-8.36,3.45-15.602,5.607-21.419,6.967C32.381,303.74,41.891,291.599,51.5,280.497z"/>
</g>
<g>
	<path style="fill:#9EA8AA;" d="M59.656,268.051l1.369-1.477c3.493-3.769,7.238-7.678,11.128-11.618l1.653-1.674l24.052,26.888   l-1.854,1.456c-4.435,3.484-8.82,6.712-13.032,9.596l-1.602,1.097L59.656,268.051z"/>
	<path style="fill:#9EA8AA;" d="M73.727,256.51l20.911,23.377c-4.434,3.483-8.747,6.657-12.916,9.51l-19.075-21.32   C66.429,263.997,70.155,260.126,73.727,256.51z"/>
</g>
<path style="fill:#3D484A;" d="M511.189,243.605c1.227,2.577,1.051,5.595-0.475,7.995c-1.515,2.411-4.169,3.87-7.011,3.87h-26.54  c-1.051,0-2.101-0.199-3.085-0.597c-10.981-4.39-24.317-9.399-28.143-10.384c-4.003,0.665-18.367,4.368-33.595,8.515  c-14.586,18.279-44.93,39.013-52.715,44.178c4.921,12.452,10.328,28.01,10.793,37.244c1.714,7.265,1.074,21.31-11.246,33.617  c-1.615,1.626-3.738,2.433-5.861,2.433c-2.123,0-4.246-0.807-5.861-2.433c-3.241-3.228-3.241-8.481,0-11.722  c6.469-6.469,7.21-12.816,7.066-16.046l-24.483-18.357c-4.667,10.627-9.72,23.499-11.744,31.969h8.482  c4.578,0,8.294,3.716,8.294,8.294s-3.716,8.294-8.294,8.294h-17.693c-4.18,0-7.708-3.118-8.227-7.265l-8.714-69.722l-1.779-1.327  c-7.088,2.886-21.364,7.354-41.933,7.531c-5.818,14.873-14.906,30.698-28.552,45.969l21.342,17.074H256  c4.578,0,8.294,3.716,8.294,8.294c0,4.578-3.716,8.294-8.294,8.294h-17.693c-1.88,0-3.716-0.641-5.186-1.814l-44.233-35.386  c-2.708-2.178-3.782-5.806-2.687-9.1l6.945-20.812c-3.473-2.665-8.393-6.679-13.823-11.799  c-7.907,7.387-18.943,10.859-29.658,14.232c-18.711,5.872-26.916,9.643-26.916,21v23.101l3.992,3.992h14.254  c4.578,0,8.294,3.716,8.294,8.294s-3.716,8.294-8.294,8.294h-17.693c-2.201,0-4.313-0.874-5.861-2.433l-8.847-8.847  c-1.559-1.548-2.433-3.66-2.433-5.861V311.46c0-10.24,7.929-18.656,17.981-19.441c0.409-6.071,1.239-12.053,2.323-17.793  C64.583,333.288,14.389,335.09,8.573,335.09c-0.232,0-0.387,0-0.476,0c-2.886-0.066-5.529-1.637-6.979-4.136  c-1.449-2.499-1.493-5.562-0.121-8.106c21.475-39.655,59.902-77.96,80.89-97.257c22.028-20.248,49.806-42.475,63.209-47.561  c7.973-9.023,42.397-44.377,93.055-45.306c54.926-1.017,84.197,13.756,91.495,18.025l58.123,8.305  c6.115-2.201,24.251-8.017,46.367-8.581c6.159-6.778,13.546-13.016,21.763-16.941c2.566-1.227,5.586-1.051,7.995,0.475  c2.411,1.515,3.87,4.169,3.87,7.011v16.521c17.737,18.777,27.093,49.64,28.619,55.015L511.189,243.605z M490.567,238.884  l-9.467-19.838c-0.209-0.453-0.387-0.918-0.52-1.404c-0.011-0.066-0.354-1.294-1.006-3.351c-2.831,1.404-6.69,3.528-11.434,6.613  c-1.393,0.918-2.964,1.349-4.512,1.349c-2.709,0-5.373-1.327-6.967-3.771c-2.488-3.837-1.404-8.979,2.433-11.477  c6.182-4.026,11.158-6.679,14.685-8.36c-2.235-5.253-5.009-11.025-8.306-16.521c-1.515,1.581-3.638,2.577-6.005,2.577  c-4.578,0-8.294-3.716-8.294-8.294v-19.518c-8.614,7.951-15.78,18.567-18.688,25.622c-1.315,3.207-4.411,5.142-7.673,5.142  c-1.051,0-2.112-0.2-3.153-0.63c-4.234-1.736-6.247-6.591-4.511-10.826c0.961-2.344,2.343-5.109,4.069-8.095  c-17.085,2.234-29.249,7.088-29.404,7.144c-1.36,0.553-2.842,0.73-4.291,0.531l-61.926-8.847c-1.251-0.177-2.444-0.641-3.494-1.36  c-0.221-0.144-26.805-17.295-83.645-16.256c-49.186,0.896-81.842,40.738-82.163,41.148c-1.294,1.603-3.141,2.676-5.185,2.986  c-4.036,1.084-19.938,11.512-41.348,29.647l20.802,23.255c1.404-1.526,2.809-3.074,4.223-4.667c0.409-0.475,0.874-0.874,1.36-1.226  c3.273-8.603,5.982-14.11,6.27-14.674c1.725-3.439,5.584-5.253,9.322-4.368c3.75,0.885,6.392,4.224,6.392,8.073  c0,19.805,13.248,38.405,24.361,50.514c12.473,13.602,24.969,22.161,25.09,22.249c3.064,2.09,4.379,5.96,3.207,9.477l-7.023,21.055  l3.129,2.51c38.284-42.309,35.243-85.757,32.378-94.338c-1.438-4.346,0.907-9.035,5.253-10.483  c4.335-1.449,9.035,0.896,10.494,5.242c2.941,8.847,3.981,26.308-1.25,47.23c15.36-0.807,25.742-4.259,30.521-6.226l7.885-31.549  c1.118-4.445,5.618-7.144,10.064-6.027c4.445,1.106,7.144,5.607,6.038,10.052l-7.52,30.045l30.995,23.244  c0.011,0.011,0.023,0.011,0.033,0.022l16.809,12.606c-3.539-10.074-8.173-21.309-11.7-29.138c-1.88-4.169-0.023-9.079,4.158-10.97  c4.17-1.88,9.079-0.022,10.97,4.158c0.265,0.597,0.63,1.415,1.073,2.411c7.907-5.385,25.125-17.56,37.72-29.68  c-0.365-0.752-0.618-1.569-0.752-2.411c-0.177-1.283-4.368-31.505,9.532-51.299c2.632-3.749,7.806-4.656,11.555-2.024  c3.75,2.632,4.655,7.807,2.024,11.556c-6.114,8.714-7.287,21.265-7.254,29.846c23.488-6.458,37.012-9.731,40.274-9.731  c1.57,0,4.799,0,32.555,11.058h11.816V238.884z M316.411,311.702l-5.828-4.379l1.714,13.701  C313.524,318.116,314.896,314.997,316.411,311.702z M144.688,298.82c8.781-2.754,17.815-5.595,23.112-10.339  c-7.641-8.725-15.061-19.153-20.061-30.742c-3.793,12.131-7.287,27.369-7.298,42.431  C141.879,299.704,143.294,299.252,144.688,298.82z M119.022,258.324L97.27,234.018c-1.802,1.626-3.638,3.295-5.485,5.009  c-1.924,1.779-4.014,3.749-6.215,5.85l21.796,24.361C111.181,265.845,115.073,262.216,119.022,258.324z M94.638,279.887  L73.727,256.51c-3.572,3.616-7.298,7.486-11.08,11.567l19.075,21.32C85.891,286.545,90.204,283.371,94.638,279.887z M67.512,298.399  l-16.011-17.902c-9.61,11.102-19.12,23.244-27.236,35.729c5.817-1.36,13.06-3.517,21.419-6.967  C51.997,306.659,59.352,303.132,67.512,298.399z"/>
<g>
	<path style="fill:#9EA8AA;" d="M201.186,333.541l7.51-22.516c0.854-2.563-0.115-5.422-2.355-6.95   c-1.398-0.972-13.521-9.545-25.474-22.581c-11.379-12.398-24.944-31.486-24.944-52.009c0-2.834-1.927-5.269-4.688-5.919   c-0.459-0.109-0.928-0.164-1.396-0.164c-2.279,0-4.416,1.323-5.442,3.369c-0.033,0.064-2.767,5.497-6.18,14.47l-0.234,0.617   l-0.534,0.387c-0.404,0.293-0.725,0.581-0.983,0.879c-1.446,1.628-2.86,3.186-4.272,4.721l-1.65,1.795l-23.941-26.766l1.733-1.469   c21.065-17.844,37.466-28.823,42.204-30.096l0.119-0.032l0.123-0.019c1.491-0.226,2.839-1.003,3.795-2.188   c0.303-0.387,33.595-41.055,83.843-41.97c1.682-0.031,3.345-0.046,4.976-0.046c53.716,0,78.871,15.979,79.917,16.659   c0.806,0.551,1.69,0.895,2.598,1.023l61.929,8.847c0.27,0.038,0.557,0.056,0.841,0.056c0.798,0,1.574-0.15,2.303-0.447   c2.256-0.876,13.927-5.193,29.949-7.287l4.445-0.582l-2.243,3.881c-1.64,2.838-3.002,5.545-3.937,7.827   c-1.274,3.108,0.208,6.671,3.303,7.941c0.748,0.31,1.524,0.466,2.313,0.466c2.479,0,4.688-1.48,5.628-3.77   c2.777-6.731,9.978-17.863,19.236-26.408l3.711-3.426v24.568c0,3.354,2.728,6.082,6.082,6.082c1.672,0,3.237-0.672,4.407-1.894   l2.005-2.091l1.49,2.484c2.97,4.952,5.811,10.602,8.445,16.793l0.829,1.951l-1.913,0.912c-4.485,2.138-9.34,4.902-14.43,8.217   c-2.809,1.829-3.611,5.608-1.785,8.421c1.127,1.728,3.039,2.763,5.111,2.763c1.178,0,2.318-0.341,3.294-0.984   c4.128-2.685,8.05-4.953,11.669-6.748l2.311-1.147l0.78,2.459c0.228,0.719,0.843,2.692,1.031,3.437l0.002-0.001   c0.093,0.341,0.221,0.688,0.393,1.059l10.965,22.978h-15.74l-0.394-0.157c-27.362-10.901-30.541-10.901-31.737-10.901   c-2.091,0-10.672,1.674-39.688,9.652l-2.788,0.766l-0.011-2.89c-0.035-9.171,1.264-22.016,7.656-31.124   c0.933-1.33,1.293-2.944,1.013-4.545c-0.281-1.601-1.168-2.997-2.498-3.93c-1.03-0.723-2.235-1.105-3.486-1.105   c-1.986,0-3.849,0.968-4.988,2.589c-13.011,18.528-9.585,46.584-9.152,49.722c0.094,0.595,0.282,1.196,0.551,1.751l0.702,1.445   l-1.158,1.114c-12.46,11.992-29.162,23.89-38.008,29.915l-2.191,1.493l-2.146-4.831c-0.982-2.17-3.163-3.58-5.551-3.58   c-0.859,0-1.696,0.181-2.488,0.537c-3.058,1.383-4.428,4.992-3.051,8.044c3.233,7.177,8.023,18.646,11.77,29.315l2.415,6.873   l-22.479-16.86l-0.175-0.085l-0.154-0.158l-32.033-24.023l7.876-31.469c0.809-3.253-1.175-6.561-4.426-7.369   c-0.495-0.124-0.995-0.187-1.495-0.187c-2.787,0-5.208,1.894-5.891,4.607l-8.154,32.629l-1.033,0.425   c-4.933,2.033-15.551,5.565-31.246,6.389l-2.988,0.157l0.725-2.902c5.255-21.023,3.983-37.916,1.297-45.996   c-0.835-2.484-3.156-4.156-5.775-4.156c-0.651,0-1.297,0.106-1.921,0.314c-3.178,1.059-4.907,4.51-3.854,7.691   c2.913,8.725,6.228,53.343-32.837,96.516l-1.399,1.545L201.186,333.541z"/>
	<path style="fill:#9EA8AA;" d="M481.1,219.045l9.467,19.838h-11.81c-27.757-11.058-30.986-11.058-32.555-11.058   c-3.262,0-16.786,3.273-40.274,9.731c-0.033-8.581,1.139-21.132,7.254-29.846c2.632-3.749,1.726-8.924-2.024-11.556   c-3.749-2.632-8.923-1.725-11.555,2.024c-13.9,19.794-9.709,50.016-9.532,51.299c0.133,0.84,0.387,1.659,0.752,2.411   c-12.595,12.12-29.813,24.295-37.72,29.68c-0.441-0.995-0.806-1.814-1.073-2.411c-1.891-4.18-6.8-6.038-10.97-4.158   c-4.18,1.891-6.038,6.801-4.158,10.97c3.526,7.829,8.161,19.064,11.7,29.138l-16.809-12.606c-0.011-0.011-0.023-0.011-0.033-0.022   l-30.995-23.244l7.52-30.045c1.106-4.445-1.592-8.946-6.038-10.052c-4.447-1.117-8.946,1.581-10.064,6.027l-7.885,31.549   c-4.777,1.968-15.161,5.419-30.521,6.226c5.229-20.922,4.191-38.383,1.25-47.23c-1.46-4.346-6.159-6.69-10.494-5.242   c-4.346,1.449-6.69,6.137-5.253,10.483c2.864,8.581,5.905,52.029-32.378,94.338l-3.129-2.51l7.023-21.055   c1.172-3.517-0.144-7.387-3.207-9.477c-0.121-0.088-12.617-8.648-25.09-22.249c-11.114-12.109-24.361-30.709-24.361-50.514   c0-3.848-2.643-7.188-6.392-8.072c-3.738-0.885-7.597,0.929-9.322,4.368c-0.288,0.564-2.997,6.071-6.27,14.674   c-0.487,0.353-0.951,0.752-1.36,1.226c-1.414,1.592-2.82,3.141-4.223,4.667l-20.802-23.255   c21.409-18.135,37.31-28.563,41.348-29.647c2.046-0.31,3.893-1.382,5.185-2.986c0.321-0.409,32.976-40.252,82.163-41.148   c56.839-1.039,83.424,16.112,83.645,16.256c1.051,0.719,2.244,1.183,3.494,1.36l61.926,8.847c1.449,0.199,2.929,0.022,4.291-0.531   c0.155-0.055,12.319-4.91,29.404-7.144c-1.726,2.986-3.108,5.75-4.069,8.095c-1.736,4.235,0.276,9.09,4.511,10.826   c1.039,0.431,2.101,0.63,3.153,0.63c3.262,0,6.358-1.935,7.673-5.142c2.909-7.055,10.074-17.671,18.688-25.622v19.518   c0,4.578,3.716,8.294,8.294,8.294c2.366,0,4.49-0.995,6.005-2.577c3.295,5.496,6.071,11.268,8.306,16.521   c-3.528,1.681-8.504,4.335-14.685,8.36c-3.837,2.499-4.921,7.641-2.433,11.477c1.592,2.444,4.257,3.771,6.967,3.771   c1.548,0,3.118-0.431,4.512-1.349c4.744-3.085,8.603-5.208,11.434-6.613c0.652,2.057,0.995,3.284,1.006,3.351   C480.714,218.127,480.891,218.592,481.1,219.045z"/>
</g>
<g>
</g>
<g>
</g>
<g>
</g>
<g>
</g>
<g>
</g>
<g>
</g>
<g>
</g>
<g>
</g>
<g>
</g>
<g>
</g>
<g>
</g>
<g>
</g>
<g>
</g>
<g>
</g>
<g>
</g>
<script xmlns=""/></svg>